<svg width="243" height="208" viewBox="0 0 243 208" fill="none" xmlns="http://www.w3.org/2000/svg">
<g opacity="0.7">
<path d="M157.391 196.103C160.006 196.103 162.548 195.983 165.019 195.742C181.698 194.153 194.886 187.361 203.656 177.878C208.295 172.936 211.803 166.983 213.923 160.456C215.919 154.277 216.501 147.705 215.624 141.255C209.563 96.7924 158.664 118.414 180.002 91.3708C201.34 64.3281 159.568 29.9335 143.54 38.0735C127.512 46.2134 145.188 63.6228 105.579 55.3925C65.9695 47.1622 74.1659 83.3238 74.1659 83.3238" stroke="#CCDDE2" stroke-width="4.82" stroke-miterlimit="10"/>
<path d="M50.7506 157.73C50.7506 157.73 32.6107 144.294 25.6074 159.153C25.6074 159.153 32.9728 132.191 58.0941 122.547C58.0941 122.547 65.2747 118.421 65.5906 120.913C65.9065 123.406 67.9891 124.678 68.9003 124.648C69.8116 124.618 77.5049 125.115 77.7722 123.928C78.0395 122.741 77.5292 119.184 81.3443 119.159C85.1594 119.134 105.861 124.387 111.78 129.939C111.78 129.939 101.477 142.788 106.986 156.954L102.344 155.792C102.344 155.792 105.207 181.394 101.304 196.286H33.8962C33.8962 196.286 40.6345 197.162 47.5455 192.069L57.5814 178.766C57.5814 178.766 61.9821 171.879 70.9731 170.895C70.9731 170.895 76.0907 170.318 76.0421 167.805C75.9935 165.293 77.8864 169.414 80.4161 165.782C80.7247 165.782 86.8726 166.148 86.8726 166.148C86.8726 166.148 91.4896 166.595 92.3571 162.338C93.2246 158.081 96.4225 128.202 95.2731 126.408C94.1237 124.613 93.6839 124.59 83.9833 124.651C74.2827 124.711 65.7583 122.713 64.5239 127.698C63.2894 132.683 61.863 151.57 61.863 151.57C61.863 151.57 56.3955 153.049 52.2305 159.166C52.2451 159.163 50.7506 162.145 50.7506 157.73Z" fill="#4ADE80" fill-opacity="0.37"/>
<path d="M50.7505 148.656V160.418" stroke="black" stroke-width="4.82" stroke-miterlimit="10"/>
<path d="M102.033 154.538C112.737 160.411 142.32 172.411 143.37 126.255C143.37 126.255 142.097 114.134 145.416 112.553C148.735 110.971 154.089 105.964 147.195 93.8407L151.693 89.2047C152.3 88.5586 152.635 87.6897 152.622 86.7888C152.61 85.8882 152.251 85.0296 151.626 84.4018C151 83.7741 150.159 83.4287 149.287 83.4415C148.415 83.4546 147.584 83.8248 146.976 84.4709L138.036 94.2599C138.036 94.2599 136.741 91.7499 134.445 93.0576C132.148 94.3653 123.726 99.9149 127.551 111.504L117.602 141.021" stroke="black" stroke-width="4.82" stroke-miterlimit="10"/>
<path d="M138.024 94.2538C138.024 94.2538 140.408 98.0012 135.334 101.831" stroke="black" stroke-width="4.82" stroke-miterlimit="10"/>
<path d="M148.663 96.752C148.663 96.752 150.147 101.569 144.157 104.676C142.038 105.775 139.713 103.461 140.714 101.24C140.731 101.207 140.746 101.172 140.763 101.137" stroke="black" stroke-width="4.82" stroke-miterlimit="10"/>
<path d="M150.475 102.7C150.475 102.7 149.166 107.404 145.581 107.63C142.41 107.828 142.942 104.488 142.942 104.488" stroke="black" stroke-width="4.82" stroke-miterlimit="10"/>
<path d="M89.1566 99.7542C88.9136 99.8195 88.7605 99.6111 88.5345 99.6513C85.2856 99.0388 82.8702 96.3883 82.598 95.1132C82.6904 95.8085 83.9248 95.7382 83.7158 96.4485C83.677 96.5841 83.5992 96.5313 83.536 96.6619C83.434 96.9129 83.4364 96.569 83.293 96.7949C82.496 95.5776 82.0343 94.9726 81.8933 94.3025C81.9891 95.0218 81.9327 95.754 81.7281 96.4485C81.6907 96.5843 81.6411 96.7163 81.5799 96.8426C81.0939 98.0273 80.0806 99.0288 78.3868 99.2773C77.9623 99.3328 77.5334 99.3471 77.1062 99.32C75.8912 99.2472 74.8415 99.1744 73.9472 99.1342C70.9583 98.9962 69.8867 99.2296 70.2221 101.223C70.407 102.124 70.6689 103.007 71.0045 103.861C71.5974 105.472 72.0105 108.263 71.403 111.303V111.32C70.6983 114.859 68.4676 117.595 63.6878 120.166C62.8409 120.617 61.9678 121.013 61.0731 121.353C52.7795 124.53 32.941 132.58 24.7179 162.098C23.8431 165.243 23.1895 168.104 22.7278 170.717L22.5018 170.581C16.886 167.105 13.224 159.306 14.337 152.597C14.891 149.266 16.9905 146.942 19.683 145.193C21.5735 143.983 23.5953 142.991 25.2889 141.498C30.9022 136.546 26.414 128.845 29.522 122.924C33.026 116.262 38.513 112.156 45.6766 111.817C47.4797 111.898 49.5087 112.116 51.477 112.018C54.3347 112.123 57.2556 111.883 59.3478 109.947C60.9953 108.441 61.338 105.987 61.9625 103.938C62.6657 101.629 63.2521 99.2828 63.7194 96.9104C64.1468 94.6609 64.9441 92.5038 66.0765 90.5325C67.299 88.3962 69.0231 86.6126 71.0896 85.3468C72.8921 84.2959 74.902 83.6804 76.9677 83.5471C78.849 83.6616 80.6791 84.2253 82.3137 85.1937C82.8719 85.5345 83.3997 85.9259 83.8908 86.3633C87.5091 89.551 89.2417 94.9475 89.1566 99.7542Z" fill="#383838"/>
<path d="M144.055 107.349C144.055 107.349 142.896 108.835 143.53 110.246C144.165 111.656 145.739 111.985 147.27 111.368" stroke="black" stroke-width="4.82" stroke-miterlimit="10"/>
<path d="M147.19 93.8401L143.987 97.1458" stroke="black" stroke-width="4.82" stroke-miterlimit="10"/>
<path d="M61.875 151.247L64.4824 128.029C64.5878 127.09 65.024 126.223 65.7076 125.594C66.3914 124.965 67.2749 124.618 68.1906 124.618H92.1358C92.6597 124.618 93.1778 124.731 93.6565 124.952C94.1349 125.172 94.5634 125.494 94.9135 125.896C95.2639 126.299 95.5281 126.773 95.6892 127.288C95.8503 127.803 95.9047 128.347 95.8488 128.885L92.3593 162.341C92.2604 163.287 91.8267 164.162 91.1412 164.797C90.4559 165.433 89.5673 165.785 88.6463 165.785H80.0781" stroke="black" stroke-width="4.82" stroke-miterlimit="10"/>
<path d="M90.1773 130.531C90.7168 130.531 91.1542 130.08 91.1542 129.522C91.1542 128.965 90.7168 128.513 90.1773 128.513C89.6378 128.513 89.2004 128.965 89.2004 129.522C89.2004 130.08 89.6378 130.531 90.1773 130.531Z" fill="black"/>
<path d="M74.0519 156.633C76.5791 157.221 77.0845 157.231 79.5364 157.607C81.0818 157.846 84.6151 158.044 84.6782 155.567C84.7366 153.39 82.3722 152.113 80.7028 151.418C78.776 150.661 76.7598 150.174 74.708 149.969C73.8623 149.869 73.0125 149.8 72.1589 149.763C66.2418 149.512 59.416 150.991 55.3409 155.772C45.9003 166.836 33.3469 173.95 33.3469 173.95" stroke="black" stroke-width="4.82" stroke-miterlimit="10"/>
<path d="M80.8193 157.729C82.0343 158.262 84.0925 159.396 83.2493 161.57C82.8653 162.574 82.1679 162.93 81.2105 163.076C79.1426 163.385 76.924 162.93 74.8925 162.491C74.1416 162.328 72.81 162.029 72.0688 161.818" stroke="black" stroke-width="4.82" stroke-miterlimit="10"/>
<path d="M78.6592 163.126C78.6592 163.126 80.8681 163.098 80.3359 165.219C79.4587 168.733 72.6425 167.142 69.4543 166.404" stroke="black" stroke-width="4.82" stroke-miterlimit="10"/>
<path d="M78.7952 119.349C89.181 119.818 105.008 122.963 119.359 135.787" stroke="black" stroke-width="4.82" stroke-miterlimit="10"/>
<path d="M157.391 196.105L33.896 196.295" stroke="black" stroke-width="4.82" stroke-miterlimit="10"/>
<path d="M102.033 149.738C102.033 149.738 104.463 173.098 102.033 196.105" stroke="black" stroke-width="4.82" stroke-miterlimit="10"/>
<path opacity="0.54" d="M209.274 139.068L230.631 82.5402C230.896 81.4463 230.916 80.3047 230.69 79.2019C230.463 78.099 229.997 77.0638 229.325 76.175C228.653 75.2865 227.795 74.5674 226.814 74.0729C225.833 73.5782 224.756 73.3212 223.664 73.3209H138.821C136.916 73.3207 135.066 73.9828 133.57 75.2009C132.074 76.4188 131.019 78.1218 130.574 80.0352L107.187 136.55C106.933 137.641 106.922 138.777 107.155 139.873C107.387 140.969 107.857 141.996 108.53 142.877C109.202 143.758 110.059 144.47 111.036 144.96C112.013 145.45 113.085 145.704 114.171 145.704H201.044C202.936 145.704 204.773 145.051 206.264 143.849C207.756 142.646 208.815 140.964 209.274 139.068Z" fill="white"/>
<path d="M209.274 139.068L230.631 82.5402C230.896 81.4463 230.916 80.3047 230.69 79.2019C230.463 78.099 229.997 77.0638 229.325 76.175C228.653 75.2865 227.795 74.5674 226.814 74.0729C225.833 73.5782 224.756 73.3212 223.664 73.3209H138.821C136.916 73.3207 135.066 73.9828 133.57 75.2009C132.074 76.4188 131.019 78.1218 130.574 80.0352L107.187 136.55C106.933 137.641 106.922 138.777 107.155 139.873C107.387 140.969 107.857 141.996 108.53 142.877C109.202 143.758 110.059 144.47 111.036 144.96C112.013 145.45 113.085 145.704 114.171 145.704H201.044C202.936 145.704 204.773 145.051 206.264 143.849C207.756 142.646 208.815 140.964 209.274 139.068Z" fill="#383838"/>
<path d="M209.274 139.068L230.631 82.5402C230.896 81.4463 230.916 80.3047 230.69 79.2019C230.463 78.099 229.997 77.0638 229.325 76.175C228.653 75.2865 227.795 74.5674 226.814 74.0729C225.833 73.5782 224.756 73.3212 223.664 73.3209H138.821C136.916 73.3207 135.066 73.9828 133.57 75.2009C132.074 76.4188 131.019 78.1218 130.574 80.0352L107.187 136.55C106.933 137.641 106.922 138.777 107.155 139.873C107.387 140.969 107.857 141.996 108.53 142.877C109.202 143.758 110.059 144.47 111.036 144.96C112.013 145.45 113.085 145.704 114.171 145.704H201.044C202.936 145.704 204.773 145.051 206.264 143.849C207.756 142.646 208.815 140.964 209.274 139.068Z" stroke="black" stroke-width="4.82" stroke-linecap="square" stroke-linejoin="round"/>
<path d="M206.149 136.779L225.854 84.629C226.098 83.6202 226.116 82.5673 225.907 81.5502C225.699 80.5329 225.268 79.5784 224.649 78.7586C224.03 77.9391 223.238 77.2757 222.333 76.8194C221.429 76.3631 220.435 76.1256 219.429 76.1251H141.151C139.394 76.1246 137.687 76.7356 136.307 77.8593C134.927 78.9833 133.953 80.5543 133.543 82.3198L111.967 134.458C111.733 135.464 111.723 136.512 111.938 137.523C112.152 138.534 112.586 139.481 113.206 140.294C113.827 141.107 114.617 141.764 115.519 142.215C116.42 142.667 117.41 142.901 118.411 142.901H198.558C200.302 142.9 201.997 142.298 203.372 141.188C204.748 140.079 205.725 138.527 206.149 136.779Z" fill="#383838"/>
<path d="M146.799 85.7128C147.836 84.1039 149.535 83.3885 150.592 84.1139C151.649 84.8393 151.664 86.7344 150.626 88.3433C150.465 88.5905 150.283 88.8224 150.082 89.036L157.773 105.808C158.988 104.962 160.349 104.754 161.316 105.419C161.94 105.848 162.288 106.578 162.397 107.427L167.651 105.594L172.246 104.008C172.732 103.835 173.245 103.669 173.745 103.506C173.934 102.923 174.196 102.369 174.525 101.857C175.983 99.5981 178.367 98.5941 179.849 99.5981C181.332 100.602 181.351 103.23 179.934 105.477L188.682 117.833C190.59 116.217 192.838 115.717 194.395 116.787C196.514 118.242 196.546 122.043 194.466 125.273C194.383 125.401 194.288 125.506 194.201 125.629L200.033 133.86C200.05 133.885 200.072 133.915 200.086 133.94C200.234 134.17 200.336 134.427 200.387 134.698C200.438 134.968 200.437 135.246 200.384 135.516C200.331 135.787 200.227 136.043 200.078 136.272C199.929 136.501 199.738 136.697 199.515 136.849C199.293 137.001 199.044 137.107 198.782 137.16C198.52 137.212 198.25 137.211 197.989 137.156C197.727 137.102 197.479 136.994 197.257 136.84C197.036 136.686 196.846 136.489 196.699 136.259L191.521 128.19C189.883 129.171 188.143 129.359 186.867 128.481C184.841 127.09 184.743 123.566 186.549 120.449L178.163 107.379C176.926 108.248 175.56 108.468 174.581 107.798C174.034 107.4 173.661 106.795 173.543 106.114C173.334 106.172 173.128 106.235 172.919 106.295L168.246 107.613L162.266 109.277C162.083 110.017 161.78 110.72 161.372 111.357C159.914 113.616 157.532 114.62 156.047 113.604C154.563 112.587 154.541 109.924 155.996 107.663C156.213 107.335 156.457 107.026 156.725 106.742L149.404 89.6409C148.522 90.2609 147.547 90.4215 146.85 89.9421C145.778 89.2193 145.761 87.3242 146.799 85.7128Z" fill="white"/>
<path d="M202.494 86.6388H213.84C214.359 86.6388 214.867 86.4824 215.301 86.1892C215.736 85.8958 216.079 85.4781 216.287 84.9872C216.354 84.8366 216.389 84.6734 216.392 84.5078C216.389 84.1878 216.264 83.8818 216.045 83.6561C215.825 83.4305 215.528 83.3037 215.218 83.303H203.148C203.724 84.2944 203.437 85.6649 202.494 86.6388Z" fill="#D7E8F0"/>
<path d="M195.158 85.4365C195.159 85.7558 195.282 86.0615 195.501 86.2869C195.719 86.5123 196.016 86.6388 196.325 86.6388H202.494C203.437 85.6649 203.724 84.2944 203.158 83.303H197.71C197.191 83.3027 196.684 83.4583 196.249 83.7505C195.815 84.0429 195.472 84.4596 195.263 84.9495C195.197 85.1032 195.161 85.2686 195.158 85.4365Z" fill="#383838"/>
<path d="M197.996 86.6387C198.029 86.7032 198.066 86.7645 198.108 86.8219C198.917 87.964 200.672 88.0769 202.038 87.0428C202.199 86.9198 202.352 86.7848 202.494 86.6387C203.437 85.6648 203.724 84.2944 203.158 83.3029C203.126 83.2394 203.088 83.1789 203.046 83.1222C202.244 81.9726 200.49 81.8672 199.124 82.8938C198.96 83.0188 198.805 83.1556 198.66 83.3029C197.724 84.2793 197.438 85.6422 197.996 86.6387Z" fill="white"/>
<path d="M192.305 92.7915C192.308 93.1113 192.433 93.417 192.653 93.6421C192.872 93.8673 193.17 93.9938 193.479 93.9938H205.386C204.81 92.9898 205.097 91.6344 206.042 90.6605H194.864C194.345 90.6605 193.837 90.8169 193.403 91.1101C192.968 91.4035 192.626 91.8211 192.417 92.3121C192.349 92.4624 192.311 92.6256 192.305 92.7915Z" fill="#383838"/>
<path d="M205.384 93.9938H210.973C211.491 93.9943 211.998 93.8392 212.433 93.5473C212.867 93.2554 213.21 92.8392 213.42 92.3498C213.487 92.1966 213.522 92.0307 213.524 91.8628C213.524 91.7047 213.495 91.5483 213.436 91.4022C213.378 91.2561 213.292 91.1236 213.184 91.0119C213.076 90.9002 212.947 90.8116 212.806 90.7514C212.665 90.6909 212.513 90.66 212.36 90.6605H206.04C205.092 91.6344 204.808 92.9973 205.384 93.9938Z" fill="#D7E8F0"/>
<path d="M205.384 93.9935C205.409 94.0592 205.443 94.121 205.486 94.1767C206.29 95.3263 208.045 95.4317 209.408 94.4051C209.573 94.2811 209.728 94.1436 209.872 93.9935C210.807 93.0196 211.087 91.6566 210.535 90.6602C210.504 90.5957 210.467 90.5344 210.426 90.477C209.614 89.3349 207.86 89.222 206.497 90.2561C206.334 90.3778 206.181 90.5128 206.04 90.6602C205.092 91.6341 204.808 92.997 205.384 93.9935Z" fill="white"/>
<path d="M201.418 101.298H208.545C209.064 101.298 209.571 101.142 210.006 100.85C210.44 100.558 210.783 100.141 210.992 99.6513C211.059 99.5007 211.095 99.3373 211.097 99.1719C211.095 98.8508 210.971 98.5436 210.751 98.317C210.531 98.0903 210.234 97.9625 209.923 97.962H202.081C202.64 98.9585 202.354 100.321 201.418 101.298Z" fill="#383838"/>
<path d="M189.866 100.101C189.867 100.419 189.99 100.724 190.209 100.948C190.428 101.173 190.724 101.298 191.032 101.298H201.418C202.353 100.321 202.633 98.9585 202.081 97.962H192.417C191.898 97.962 191.39 98.1184 190.956 98.4116C190.521 98.705 190.179 99.1224 189.97 99.6136C189.904 99.7667 189.868 99.9324 189.866 100.101Z" fill="#D7E8F0"/>
<path d="M196.92 101.297C196.952 101.361 196.989 101.421 197.032 101.478C197.834 102.628 199.588 102.733 200.954 101.706C201.117 101.581 201.272 101.445 201.418 101.297C202.353 100.321 202.633 98.958 202.081 97.9615C202.049 97.897 202.012 97.8358 201.969 97.7783C201.16 96.6362 199.406 96.5383 198.04 97.5574C197.878 97.6804 197.726 97.8154 197.583 97.9615C196.64 98.9354 196.344 100.306 196.92 101.297Z" fill="white"/>
<path d="M155.34 135.747H162.467C162.986 135.747 163.493 135.591 163.928 135.299C164.362 135.007 164.705 134.59 164.914 134.1C164.996 133.917 165.031 133.715 165.016 133.514C165.002 133.313 164.938 133.119 164.831 132.95C164.725 132.782 164.578 132.644 164.405 132.549C164.233 132.455 164.04 132.407 163.845 132.411H156.006C156.562 133.407 156.276 134.77 155.34 135.747Z" fill="#383838"/>
<path d="M127.045 134.55C127.045 134.708 127.076 134.864 127.135 135.009C127.193 135.155 127.279 135.287 127.387 135.398C127.495 135.509 127.623 135.597 127.764 135.657C127.905 135.717 128.057 135.748 128.209 135.748H155.34C156.276 134.771 156.555 133.408 156.003 132.412H129.597C129.078 132.412 128.57 132.568 128.135 132.861C127.701 133.155 127.358 133.572 127.15 134.063C127.083 134.217 127.047 134.382 127.045 134.55Z" fill="#D7E8F0"/>
<path d="M150.842 135.747C150.874 135.811 150.912 135.871 150.954 135.928C151.756 137.08 153.51 137.183 154.876 136.156C155.04 136.031 155.195 135.894 155.34 135.747C156.276 134.771 156.555 133.408 156.004 132.411C155.972 132.347 155.934 132.286 155.892 132.228C155.08 131.086 153.326 130.988 151.962 132.007C151.801 132.13 151.648 132.265 151.506 132.411C150.563 133.385 150.276 134.756 150.842 135.747Z" fill="white"/>
<path d="M23.1335 171.901C22.2286 171.532 21.3535 171.09 20.5164 170.578C14.8958 167.102 11.2338 159.306 12.3492 152.594C12.9057 149.263 15.0052 146.942 17.7074 145.19C19.5955 143.98 21.6269 142.991 23.3134 141.498C28.9267 136.545 24.4361 128.842 27.544 122.924C31.3227 115.745 37.3977 111.536 45.4021 111.809C49.2439 111.94 54.2327 112.851 57.3699 109.947C59.0174 108.441 59.3625 105.986 59.987 103.938C60.6909 101.628 61.278 99.2823 61.7463 96.9099C62.1669 94.6607 62.9594 92.5033 64.0888 90.532C65.3111 88.3935 67.0352 86.6076 69.1019 85.3388C72.9899 83.0221 78.4112 82.8087 82.3187 85.1907C82.8749 85.5323 83.4017 85.9229 83.8933 86.3578C87.5092 89.5606 89.2393 94.9546 89.1567 99.7638" stroke="black" stroke-width="4.82" stroke-miterlimit="10"/>
<path d="M81.8133 93.8773C82.015 95.293 82.8485 96.5982 84.3284 96.9897C86.0002 97.429 86.8872 99.1107 87.3586 100.8C88.0285 103.278 87.857 105.919 86.8726 108.282C85.9589 110.506 84.3308 113.051 81.5776 113.45C76.5402 114.203 74.0325 112 74.0325 112" stroke="black" stroke-width="4.82" stroke-miterlimit="10"/>
<path d="M77.6165 101.44C78.0943 101.44 78.4816 101.04 78.4816 100.547C78.4816 100.053 78.0943 99.6533 77.6165 99.6533C77.1388 99.6533 76.7515 100.053 76.7515 100.547C76.7515 101.04 77.1388 101.44 77.6165 101.44Z" fill="black"/>
<path d="M85.2249 100.848C85.7027 100.848 86.09 100.448 86.09 99.9545C86.09 99.461 85.7027 99.0609 85.2249 99.0609C84.7472 99.0609 84.3599 99.461 84.3599 99.9545C84.3599 100.448 84.7472 100.848 85.2249 100.848Z" fill="black"/>
<path d="M75.6093 167.4C76.8681 168.198 75.8523 169.514 74.9387 169.958C73.3689 170.711 71.3398 170.844 69.6291 171.055C56.6213 172.636 52.2789 191.08 44.1141 194.508C35.9493 197.937 14.0379 200.442 24.7251 162.094C32.9531 132.582 52.7916 124.532 61.0852 121.354C61.978 121.015 62.8494 120.62 63.695 120.17C68.4748 117.604 70.7129 114.858 71.4152 111.317C71.4152 111.317 71.4152 111.317 71.4152 111.302C72.0227 108.262 71.6144 105.471 71.0191 103.857C70.6776 103.005 70.4125 102.122 70.2269 101.219C69.7846 98.6513 71.7043 99.0128 77.0941 99.319C79.5678 99.4696 80.9675 98.315 81.5701 96.8441C81.6292 96.7166 81.6773 96.5839 81.7135 96.4476C81.9669 95.6147 81.9973 94.7265 81.801 93.8773" stroke="black" stroke-width="4.82" stroke-miterlimit="10"/>
<path d="M81.3441 100.763C81.3441 100.763 82.2529 104.194 82.1606 104.701C82.0683 105.208 80.9043 104.817 80.9043 104.817" stroke="black" stroke-width="4.82" stroke-miterlimit="10"/>
<path d="M80.7172 107.959C78.9749 108.928 76.9604 108.318 76.1731 106.704" stroke="black" stroke-width="4.82" stroke-miterlimit="10"/>
<path d="M79.0059 104.198C80.6286 102.615 80.7322 100.006 79.237 98.3702C77.7418 96.7342 75.2141 96.6908 73.5911 98.2733C71.9684 99.8559 71.8648 102.465 73.36 104.101C74.8552 105.737 77.3829 105.781 79.0059 104.198Z" stroke="black" stroke-width="4.82" stroke-miterlimit="10"/>
<path d="M89.0977 103.247C90.7207 101.664 90.8242 99.0552 89.329 97.4192C87.8338 95.7832 85.3061 95.7397 83.6831 97.3223C82.0601 98.9049 81.9566 101.514 83.4518 103.15C84.947 104.786 87.4749 104.829 89.0977 103.247Z" stroke="black" stroke-width="4.82" stroke-miterlimit="10"/>
<path d="M86.474 97.4219C87.1569 97.4173 87.8156 97.6829 88.315 98.1641C88.8144 98.6452 89.1164 99.3056 89.1592 100.01C89.2027 100.776 88.9565 101.53 88.4725 102.114C87.9884 102.696 87.3041 103.063 86.5639 103.135C86.4789 103.135 86.3914 103.135 86.3064 103.135C85.6274 103.14 84.972 102.878 84.4732 102.402C83.9745 101.926 83.67 101.271 83.6212 100.572C83.5743 99.8031 83.819 99.0458 84.3036 98.4602C84.7879 97.8744 85.4741 97.5067 86.2164 97.4344C86.3015 97.4344 86.389 97.4344 86.474 97.4344V97.4219ZM86.474 96.8295C86.372 96.8295 86.2675 96.8295 86.163 96.8446C85.2712 96.9322 84.4472 97.3732 83.864 98.0755C83.2808 98.7775 82.9838 99.6859 83.0356 100.61C83.09 101.466 83.4586 102.269 84.0664 102.854C84.6744 103.44 85.4753 103.763 86.3064 103.76C86.4084 103.76 86.5129 103.76 86.6174 103.745C87.5095 103.658 88.3339 103.217 88.9169 102.515C89.5001 101.812 89.7961 100.903 89.7424 99.9796C89.6938 99.1194 89.3281 98.3109 88.7201 97.7208C88.1121 97.1307 87.3082 96.8036 86.474 96.8069V96.8295Z" fill="white"/>
<path d="M80.2847 100.862L82.4036 100.662" stroke="black" stroke-width="4.82" stroke-miterlimit="10"/>
<path d="M76.3846 98.2931C77.0881 98.2861 77.7675 98.5584 78.2822 99.0542C78.7968 99.5496 79.1076 100.231 79.1499 100.956C79.1954 101.746 78.9422 102.523 78.4435 103.124C77.9449 103.725 77.2397 104.103 76.4769 104.177C76.3894 104.177 76.2995 104.177 76.2121 104.177C75.5078 104.183 74.8282 103.91 74.3133 103.414C73.7983 102.918 73.4873 102.237 73.4443 101.511C73.3993 100.721 73.6528 99.9447 74.1514 99.3443C74.65 98.7442 75.355 98.3672 76.1173 98.2931C76.206 98.2838 76.2954 98.2798 76.3846 98.2806V98.2931ZM76.3846 97.6757C76.2777 97.6757 76.1707 97.6807 76.0638 97.6907C75.1448 97.7788 74.2955 98.2346 73.6972 98.9605C73.0987 99.6864 72.7989 100.625 72.8611 101.576C72.9167 102.454 73.2944 103.276 73.9172 103.876C74.5397 104.476 75.3606 104.808 76.2121 104.804C76.3165 104.804 76.4235 104.804 76.5304 104.789C77.445 104.7 78.2907 104.248 78.8882 103.527C79.486 102.806 79.7888 101.873 79.7331 100.926C79.678 100.049 79.3008 99.2261 78.6785 98.6262C78.0562 98.0263 77.2358 97.6945 76.3846 97.6983V97.6757Z" fill="white"/>
<path d="M88.7142 102.826C90.1057 101.47 90.1936 99.2312 88.9103 97.8271C87.6271 96.4227 85.4585 96.3846 84.0669 97.7415C82.6752 99.0984 82.5875 101.337 83.8708 102.741C85.154 104.145 87.3226 104.183 88.7142 102.826Z" fill="#383838"/>
<path d="M79.3518 103.925C80.7556 102.554 80.8435 100.295 79.5481 98.8797C78.2524 97.4638 76.0642 97.4274 74.6604 98.7981C73.2563 100.169 73.1686 102.428 74.4641 103.843C75.7595 105.259 77.9477 105.295 79.3518 103.925Z" fill="#383838"/>
<path d="M67.7314 124.648C66.6622 123.496 65.734 121.801 65.124 119.349" stroke="black" stroke-width="4.82" stroke-miterlimit="10"/>
<path d="M77.6167 124.618L78.7953 119.349L80.0759 113.672" stroke="black" stroke-width="4.82" stroke-miterlimit="10"/>
<path d="M82.434 145.596C82.887 143.3 81.6615 141.104 79.6969 140.69C77.7322 140.276 75.7724 141.802 75.3195 144.098C74.8665 146.393 76.092 148.59 78.0566 149.003C80.0213 149.417 81.9811 147.891 82.434 145.596Z" fill="#D7E8F0"/>
<path d="M157.603 182.945L155.61 194.446C155.554 194.769 155.39 195.061 155.147 195.272C154.903 195.482 154.596 195.598 154.278 195.598H143.856C143.535 195.598 143.225 195.481 142.98 195.267C142.735 195.052 142.572 194.755 142.52 194.428L140.697 182.945H157.603Z" stroke="#CCDDE2" stroke-width="4.82" stroke-miterlimit="10"/>
<path d="M159.498 181.66C159.47 182.009 159.316 182.335 159.066 182.573C158.816 182.812 158.489 182.944 158.149 182.945H140.167C139.832 182.945 139.509 182.816 139.26 182.585C139.011 182.353 138.853 182.034 138.819 181.69C138.801 181.496 138.822 181.3 138.882 181.115C138.941 180.93 139.038 180.76 139.165 180.616C139.292 180.472 139.447 180.356 139.619 180.278C139.792 180.199 139.978 180.158 140.167 180.159H158.149C158.335 180.159 158.519 180.198 158.69 180.276C158.86 180.352 159.014 180.465 159.14 180.606C159.267 180.746 159.364 180.913 159.425 181.094C159.487 181.276 159.512 181.468 159.498 181.66Z" stroke="#CCDDE2" stroke-width="4.82" stroke-miterlimit="10"/>
<path d="M149.724 180.139C149.724 179.549 151.182 172.203 149.967 165.689C149.307 162.115 147.849 158.794 144.913 156.974" stroke="#CCDDE2" stroke-width="4.82" stroke-miterlimit="10"/>
<path d="M149.972 165.699C149.972 165.699 150.305 160.749 154.446 160.408" stroke="#CCDDE2" stroke-width="4.82" stroke-miterlimit="10"/>
<path d="M150.417 173.252C151.595 172.399 153.014 171.975 154.451 172.047" stroke="#CCDDE2" stroke-width="4.82" stroke-miterlimit="10"/>
<path d="M150.417 169.735C150.417 169.735 147.409 166.055 142.602 168.967" stroke="#CCDDE2" stroke-width="4.82" stroke-miterlimit="10"/>
<path d="M148.296 168.254C148.296 168.254 141.521 161.863 140.194 170.513C140.194 170.513 142.102 171.795 144.918 170.513C147.734 169.23 148.296 168.254 148.296 168.254Z" stroke="#CCDDE2" stroke-width="4.82" stroke-miterlimit="10"/>
<path d="M151.462 161.914C151.462 161.914 151.219 159.038 154.446 158.096C157.673 157.155 159.503 161.093 159.503 161.093C159.503 161.093 157.012 163.937 151.462 161.914Z" stroke="#CCDDE2" stroke-width="4.82" stroke-miterlimit="10"/>
<path d="M152.21 172.044C152.21 172.044 152.099 169.135 155.855 169.735C159.612 170.335 160.229 173.646 160.229 173.646C160.229 173.646 154.077 175.975 152.21 172.351" stroke="#CCDDE2" stroke-width="4.82" stroke-miterlimit="10"/>
<path d="M147.683 159.675C147.683 159.881 144.86 159.424 144.68 159.359C143.312 158.937 142.34 157.958 141.701 156.663C141.504 156.262 140.364 154.01 140.687 153.619C140.697 153.619 147.409 151.385 147.683 159.675Z" stroke="#CCDDE2" stroke-width="4.82" stroke-miterlimit="10"/>
<path d="M213.927 160.455C211.808 166.983 208.3 172.937 203.661 177.879C194.886 187.362 181.698 194.154 165.024 195.743V160.455H213.927Z" stroke="#CCDDE2" stroke-width="4.82" stroke-miterlimit="10"/>
<path d="M203.661 177.88C194.886 187.363 181.698 194.155 165.024 195.744V177.88H203.661Z" stroke="#CCDDE2" stroke-width="4.82" stroke-miterlimit="10"/>
<path d="M198.584 169.515C198.584 168.108 197.48 166.967 196.117 166.967C194.754 166.967 193.649 168.108 193.649 169.515C193.649 170.923 194.754 172.064 196.117 172.064C197.48 172.064 198.584 170.923 198.584 169.515Z" stroke="#CCDDE2" stroke-width="4.82" stroke-miterlimit="10"/>
</g>
</svg>
